#N canvas 60 296 1920 997 12;
#X obj 825 948 dac~;
#X obj 768 856 *~;
#X obj 898 860 *~;
#X obj 953 732 hsl 162 19 0 0.4 0 1 empty empty empty -2 -10 0 12 #ffc7c6 #000000 #000000 13200 1;
#X msg 952 761 \$1 20;
#X obj 952 785 line~;
#X obj 947 826 *~;
#X obj 800 719 *~;
#X text 917 928 safety clippers;
#X text 939 590 filter;
#X text 839 725 amp;
#X obj 1022 596 sig~ 200;
#X text 1366 457 cutoff;
#X obj 1185 750 hsl 162 19 1 4.5 0 1 empty empty empty -2 -10 0 12 #feffc6 #000000 #000000 8100 1;
#X text 1356 750 q;
#X obj 808 543 bob~;
#X obj 69 129 bng 19 250 50 0 empty empty empty 0 -10 0 12 #fcfcfc #000000 #000000;
#X obj 85 296 float;
#X floatatom 86 321 5 0 0 0 - - - 0;
#X floatatom 137 328 5 0 0 0 - - - 0;
#X obj 131 304 + 1;
#X floatatom 86 366 5 0 0 0 - - - 0;
#X obj 44 467 bng 19 250 50 0 empty empty empty 0 -10 0 12 #fcfcfc #000000 #000000;
#X obj 91 463 bng 19 250 50 0 empty empty empty 0 -10 0 12 #fcfcfc #000000 #000000;
#X obj 145 462 bng 19 250 50 0 empty empty empty 0 -10 0 12 #fcfcfc #000000 #000000;
#X obj 202 463 bng 19 250 50 0 empty empty empty 0 -10 0 12 #fcfcfc #000000 #000000;
#X obj 19 13 tgl 19 1 empty empty empty 0 -10 0 12 #ffc7c6 #000000 #000000 0 1;
#X obj 59 530 vsl 19 162 36 84 0 1 empty empty empty 0 -9 0 12 #ffe3c6 #000000 #000000 3300 1;
#X floatatom 49 750 5 0 0 0 - - - 0;
#X obj 35 789 float;
#X floatatom 102 754 5 0 0 0 - - - 0;
#X obj 87 793 float;
#X floatatom 162 753 5 0 0 0 - - - 0;
#X obj 147 796 float;
#X floatatom 211 756 5 0 0 0 - - - 0;
#X obj 199 797 float;
#X floatatom 224 873 5 0 0 0 - - - 0;
#X obj 46 717 div 1;
#X obj 106 528 vsl 19 162 36 84 0 1 empty empty empty 0 -9 0 12 #ffe3c6 #000000 #000000 5600 1;
#X obj 99 718 div 1;
#X obj 164 529 vsl 19 162 36 84 0 1 empty empty empty 0 -9 0 12 #ffe3c6 #000000 #000000 3500 1;
#X obj 156 717 div 1;
#X obj 218 529 vsl 19 162 36 84 0 1 empty empty empty 0 -9 0 12 #ffe3c6 #000000 #000000 5500 1;
#X obj 213 713 div 1;
#X obj 332 229 s gate_open;
#X obj 344 131 bng 19 250 50 0 empty empty empty 0 -10 0 12 #fcfcfc #000000 #000000;
#X obj 423 230 s gate_closed;
#X obj 417 197 delay 1;
#X obj 1704 798 bng 15 250 50 0 empty empty empty 17 7 0 10 #fcfcfc #000000 #000000;
#X obj 1663 722 key;
#X obj 1662 755 sel 97;
#X obj 1652 796 bng 15 250 50 0 empty empty empty 17 7 0 10 #fcfcfc #000000 #000000;
#X obj 1744 791 keyup;
#X obj 1743 822 sel 97;
#X obj 1719 748 loadbang;
#X obj 1663 960 s gate_open;
#X obj 1765 959 s gate_closed;
#X obj 1441 340 hsl 162 19 0.1 2000 0 1 empty empty empty -2 -10 0 12 #c6ffc7 #000000 #000000 1700 1;
#X obj 1485 448 hsl 162 19 0 1 0 1 empty empty empty -2 -10 0 12 #c6ffc7 #000000 #000000 7600 1;
#X obj 1657 337 hsl 162 19 0 2000 0 1 empty empty empty -2 -10 0 12 #c6ffc7 #000000 #000000 1300 1;
#X obj 1676 465 hsl 162 19 0.2 2000 0 1 empty empty empty -2 -10 0 12 #c6ffc7 #000000 #000000 4700 1;
#X text 1502 269 a;
#X text 1734 275 d;
#X text 1584 421 s;
#X text 463 10 gate dur;
#X text 1826 412 r;
#X text 51 14 seq on/off;
#X text 160 21 clock rate (ms);
#X obj 1189 648 hsl 162 19 0 4000 0 1 empty empty empty -2 -10 0 12 #feffc6 #000000 #000000 4800 1;
#X obj 1129 620 *;
#X obj 1064 555 +;
#X obj 38 79 metro 500;
#X floatatom 436 167 5 0 0 0 - - - 0;
#X text 1350 644 filter env amt;
#X obj 1185 448 hsl 162 19 0 4000 0 1 empty empty empty -2 -10 0 12 #feffc6 #000000 #000000 3800 1;
#X text 955 707 output volume;
#X obj 463 33 hsl 162 19 1 2000 0 1 empty empty empty -2 -10 0 12 #e3c6ff #000000 #000000 2300 1;
#X obj 160 41 hsl 162 19 0 2000 0 1 empty empty empty -2 -10 0 12 #e3c6ff #000000 #000000 6900 1;
#X floatatom 157 66 5 0 0 0 - - - 0;
#X obj 453 143 min;
#X obj 157 91 s clock_rate;
#X obj 476 88 r clock_rate;
#X obj 472 115 - 1;
#X floatatom 1125 487 5 0 0 0 - - - 0;
#X floatatom 462 65 5 0 0 0 - - - 0;
#X obj 397 104 loadbang;
#X obj 69 166 s clock;
#X obj 335 97 r clock;
#X obj 85 393 select 0 1 2 3 4 5 6 7, f 36;
#X obj 274 527 vsl 19 162 36 84 0 1 empty empty empty 0 -9 0 12 #ffe3c6 #000000 #000000 4900 1;
#X floatatom 270 746 5 0 0 0 - - - 0;
#X obj 256 785 float;
#X floatatom 323 750 5 0 0 0 - - - 0;
#X obj 308 789 float;
#X floatatom 383 749 5 0 0 0 - - - 0;
#X obj 368 792 float;
#X floatatom 432 752 5 0 0 0 - - - 0;
#X obj 421 790 float;
#X obj 267 713 div 1;
#X obj 327 524 vsl 19 162 36 84 0 1 empty empty empty 0 -9 0 12 #ffe3c6 #000000 #000000 7200 1;
#X obj 320 714 div 1;
#X obj 385 525 vsl 19 162 36 84 0 1 empty empty empty 0 -9 0 12 #ffe3c6 #000000 #000000 7400 1;
#X obj 377 713 div 1;
#X obj 440 525 vsl 19 162 36 84 0 1 empty empty empty 0 -9 0 12 #ffe3c6 #000000 #000000 6100 1;
#X obj 434 709 div 1;
#X obj 253 466 bng 19 250 50 0 empty empty empty 0 -10 0 12 #fcfcfc #000000 #000000;
#X obj 308 465 bng 19 250 50 0 empty empty empty 0 -10 0 12 #fcfcfc #000000 #000000;
#X obj 360 469 bng 19 250 50 0 empty empty empty 0 -10 0 12 #fcfcfc #000000 #000000;
#X obj 418 469 bng 19 250 50 0 empty empty empty 0 -10 0 12 #fcfcfc #000000 #000000;
#X obj 86 342 mod 8;
#X text 1007 755 BE VERY CAREFUL;
#X obj 765 898 clip~ -0.8 0.8;
#X obj 898 899 clip~ -0.8 0.8;
#X obj 79 241 r clock;
#X msg 1653 824 1;
#X msg 1698 831 0;
#X obj 1666 856 tgl 19 0 empty empty empty 0 -10 0 12 #fcfcfc #000000 #000000 0 1;
#X obj 1665 894 change;
#X obj 1668 927 sel 1;
#X obj 1430 394 s a;
#X obj 1654 373 s d;
#X obj 1596 554 s s;
#X obj 1672 490 s r;
#N canvas 836 115 488 780 envelope 0;
#X text 201 37 a;
#X text 260 45 d;
#X text 319 36 s;
#X text 383 39 r;
#X msg 87 622 1 \$1;
#X obj 68 81 bng 15 250 50 0 empty empty empty 17 7 0 10 #fcfcfc #000000 #000000;
#X obj 117 84 bng 15 250 50 0 empty empty empty 17 7 0 10 #fcfcfc #000000 #000000;
#X msg 369 630 0 \$1;
#X msg 133 151 stop;
#X floatatom 312 113 5 0 1 0 - - - 0;
#X obj 70 24 r gate_open;
#X obj 92 51 r gate_closed;
#X floatatom 371 112 5 0 0 0 - - - 0;
#X floatatom 195 106 5 0 0 0 - - - 0;
#X obj 82 226 f;
#X obj 364 217 f;
#X floatatom 253 110 5 0 0 0 - - - 0;
#X obj 93 250 bng 15 250 50 0 empty empty empty 17 7 0 10 #fcfcfc #000000 #000000;
#X obj 273 218 bng 19 250 50 0 empty empty empty 0 -10 0 12 #fcfcfc #000000 #000000;
#X obj 385 246 bng 19 250 50 0 empty empty empty 0 -10 0 12 #fcfcfc #000000 #000000;
#X msg 289 316 1;
#X msg 323 313 0;
#X obj 321 342 tgl 19 0 empty empty empty 0 -10 0 12 #fcfcfc #000000 #000000 0 1;
#X obj 286 603 spigot;
#X msg 193 616 0 \$1;
#X obj 194 211 f;
#X obj 210 244 bng 15 250 50 0 empty empty empty 17 7 0 10 #fcfcfc #000000 #000000;
#X obj 118 317 <;
#X obj 166 358 tgl 19 0 empty empty empty 0 -10 0 12 #fcfcfc #000000 #000000 0 1;
#X msg 209 328 1;
#X msg 243 325 0;
#X obj 228 361 tgl 19 0 empty empty empty 0 -10 0 12 #fcfcfc #000000 #000000 0 1;
#X obj 134 175 delay 1;
#X msg 209 159 stop;
#X obj 229 194 delay 1;
#X obj 206 427 *;
#X obj 209 459 sel 1;
#X obj 308 240 f;
#X text 213 304 decay;
#X text 291 291 sustain;
#X text 99 382 signal < sustain;
#X obj 197 66 r a;
#X obj 251 75 r d;
#X obj 314 68 r s;
#X obj 375 66 r r;
#X obj 188 704 line;
#X obj 81 676 vline~;
#X obj 107 740 s~ env;
#X obj 240 739 s env_control;
#X connect 4 0 45 0;
#X connect 4 0 46 0;
#X connect 5 0 14 0;
#X connect 5 0 32 0;
#X connect 6 0 8 0;
#X connect 6 0 15 0;
#X connect 6 0 33 0;
#X connect 7 0 46 0;
#X connect 8 0 32 0;
#X connect 9 0 27 1;
#X connect 9 0 37 0;
#X connect 10 0 5 0;
#X connect 11 0 6 0;
#X connect 12 0 15 1;
#X connect 13 0 14 1;
#X connect 13 0 32 1;
#X connect 14 0 4 0;
#X connect 14 0 17 0;
#X connect 15 0 7 0;
#X connect 15 0 19 0;
#X connect 16 0 25 1;
#X connect 16 0 34 1;
#X connect 18 0 20 0;
#X connect 18 0 37 0;
#X connect 19 0 21 0;
#X connect 19 0 30 0;
#X connect 20 0 22 0;
#X connect 21 0 22 0;
#X connect 22 0 23 1;
#X connect 23 0 46 0;
#X connect 24 0 46 0;
#X connect 24 0 45 0;
#X connect 25 0 24 0;
#X connect 25 0 26 0;
#X connect 26 0 29 0;
#X connect 27 0 28 0;
#X connect 28 0 35 0;
#X connect 29 0 31 0;
#X connect 30 0 31 0;
#X connect 31 0 35 1;
#X connect 32 0 25 0;
#X connect 32 0 34 0;
#X connect 33 0 34 0;
#X connect 34 0 30 0;
#X connect 35 0 36 0;
#X connect 36 0 18 0;
#X connect 36 0 30 0;
#X connect 37 0 23 0;
#X connect 41 0 13 0;
#X connect 42 0 16 0;
#X connect 43 0 9 0;
#X connect 44 0 12 0;
#X connect 45 0 27 0;
#X connect 45 0 48 0;
#X connect 46 0 47 0;
#X restore 1781 220 pd envelope;
#X text 187 366 sequencer;
#X text 1782 184 envelope controls;
#X text 1535 682 debug tool - push and release A to generate gate;
#X obj 1636 128 hsl 162 19 0 20 0 1 empty empty empty -2 -10 0 12 #c6ffc7 #000000 #000000 7200 1;
#X text 1644 105 LFO rate;
#X obj 1181 549 hsl 162 19 0 1000 0 1 empty empty empty -2 -10 0 12 #feffc6 #000000 #000000 1400 1;
#X obj 1076 435 r lfo;
#X obj 1083 464 *;
#X obj 1074 487 +;
#X obj 1069 519 t b;
#X obj 1666 596 hsl 162 19 0 0.5 0 1 empty empty empty -2 -10 0 12 #c6ffc7 #000000 #000000 0 1;
#X obj 1607 620 r lfo;
#X obj 1590 589 *;
#X obj 1566 552 +;
#X text 1699 570 lfo sustain amt (tremolo);
#N canvas 0 114 765 535 lfo 0;
#X obj 87 183 osc~;
#X obj 84 277 snapshot~;
#X obj 105 221 tgl 19 1 empty empty empty 0 -10 0 12 #fcfcfc #000000 #000000 1 1;
#X obj 292 503 s lfo;
#X obj 243 25 r lfo_rate;
#X text 88 158 sine;
#X obj 615 153 noise~;
#X obj 621 216 snapshot~;
#X obj 673 184 metro 20;
#X obj 672 158 tgl 19 1 empty empty empty 0 -10 0 12 #fcfcfc #000000 #000000 1 1;
#X floatatom 311 119 5 0 0 0 - - - 0;
#X obj 327 166 * -1;
#X msg 399 169 0;
#X obj 269 209 phasor~;
#X obj 370 207 phasor~;
#X msg 448 169 0.5;
#X obj 433 145 bng 15 250 50 0 empty empty empty 0 -6 0 8 #fcfcfc #000000 #000000;
#X obj 305 271 -~ 1;
#X obj 307 247 +~;
#X text 396 123 phase synchronization;
#X obj 106 247 metro 20;
#X obj 346 313 snapshot~;
#X obj 367 257 tgl 19 1 empty empty empty 0 -10 0 12 #fcfcfc #000000 #000000 1 1;
#X obj 368 283 metro 20;
#X obj 397 94 loadbang;
#X obj 257 353 r lfo_type;
#X obj 696 138 -;
#X obj 591 63 t b;
#X obj 168 414 spigot;
#X obj 204 385 == 0;
#X obj 273 426 spigot;
#X obj 526 415 spigot;
#X obj 277 386 == 1;
#X obj 556 365 == 2;
#X obj 584 21 * 10;
#X floatatom 593 112 5 0 0 0 - - - 0;
#X connect 0 0 1 0;
#X connect 1 0 28 0;
#X connect 2 0 20 0;
#X connect 4 0 0 0;
#X connect 4 0 10 0;
#X connect 4 0 34 0;
#X connect 6 0 7 0;
#X connect 7 0 31 0;
#X connect 8 0 7 0;
#X connect 9 0 8 0;
#X connect 10 0 11 0;
#X connect 10 0 13 0;
#X connect 11 0 14 0;
#X connect 12 0 13 1;
#X connect 13 0 18 0;
#X connect 14 0 18 1;
#X connect 15 0 14 1;
#X connect 16 0 12 0;
#X connect 16 0 15 0;
#X connect 17 0 21 0;
#X connect 18 0 17 0;
#X connect 20 0 1 0;
#X connect 21 0 30 0;
#X connect 22 0 23 0;
#X connect 23 0 21 0;
#X connect 24 0 16 0;
#X connect 25 0 29 0;
#X connect 25 0 32 0;
#X connect 25 0 33 0;
#X connect 26 0 8 1;
#X connect 27 0 26 0;
#X connect 27 0 35 0;
#X connect 28 0 3 0;
#X connect 29 0 28 1;
#X connect 30 0 3 0;
#X connect 31 0 3 0;
#X connect 32 0 30 1;
#X connect 33 0 31 1;
#X connect 34 0 26 1;
#X connect 34 0 27 0;
#X connect 35 0 26 0;
#X restore 1726 103 pd lfo;
#X obj 1630 172 s lfo_rate;
#X text 1346 549 filter LFO amt;
#X obj 599 309 s lfo_type;
#X obj 597 235 vradio 19 1 1 3 empty empty empty 0 -10 0 12 #fcfcfc #000000 #000000 1;
#X text 594 211 LFO type;
#X text 625 233 sine;
#X text 625 250 square;
#X text 625 271 s&h;
#X obj 219 932 s midi_note;
#X obj 777 81 r midi_note;
#N canvas 65 169 1636 625 voice 0;
#X floatatom 101 133 5 0 0 0 - - - 0;
#X obj 100 353 phasor~;
#X obj 160 352 phasor~;
#X obj 34 358 phasor~;
#X obj 145 167 ftom;
#X floatatom 144 199 5 0 0 0 - - - 0;
#X obj 43 269 +;
#X obj 132 230 bng 19 250 50 0 empty empty empty 0 -10 0 12 #fcfcfc #000000 #000000;
#X floatatom 34 294 5 0 0 0 - - - 0;
#X obj 196 259 -;
#X floatatom 161 290 5 0 0 0 - - - 0;
#X obj 161 319 mtof;
#X obj 38 324 mtof;
#X floatatom 173 102 5 0 0 0 - - - 0;
#X obj 526 50 inlet;
#X obj 335 645 outlet~;
#X obj 527 80 mtof;
#X obj 110 456 /~ 3;
#X obj 108 419 *~ 2;
#X obj 112 499 -~ 1;
#X obj 169 62 r vco_mod;
#X text 218 289 sawtooth generator;
#X floatatom 521 164 5 0 0 0 - - - 0;
#X obj 512 204 phasor~;
#X obj 508 257 expr~ $v1 < $f2;
#X obj 612 147 r vco_mod;
#X obj 510 403 -~ 1;
#X obj 625 187 / 2;
#X obj 615 226 + 0.5;
#X obj 721 538 == 0;
#X obj 236 523 == 1;
#X obj 468 529 == 2;
#X obj 303 468 r wave_type;
#X obj 215 578 *~;
#X obj 440 576 *~;
#X obj 697 578 *~;
#X obj 962 562 *~;
#X obj 992 525 == 3;
#X obj 808 139 osc~;
#X obj 988 427 noise~;
#X obj 809 171 *~;
#X obj 888 85 r vco_mod;
#X obj 887 112 * 6;
#X obj 887 138 + 1;
#X text 534 296 square generator;
#X text 882 325 sine generator;
#X text 989 450 noise generator;
#X text 1001 488 note implement shift register noise?;
#X obj 807 207 expr~ if($v1 > 1 \, 2-$v1 \, $v1);
#X obj 797 241 expr~ if($v1 < -1 \, -2-$v1 \, $v1);
#X obj 791 275 expr~ if($v1 > 1 \, 2-$v1 \, $v1);
#X obj 781 309 expr~ if($v1 < -1 \, -2-$v1 \, $v1);
#X obj 1148 66 r lfo;
#X obj 1221 294 spigot;
#X obj 1240 238 == 0;
#X obj 1298 300 spigot;
#X obj 1381 322 spigot;
#X obj 1435 74 r vco_mod_src;
#X obj 1333 439 s vco_mod;
#X obj 1331 16 r vco_mod_val;
#X obj 1285 166 *;
#X obj 1186 177 *;
#X obj 1232 75 t b;
#X obj 1346 101 print;
#X obj 1398 288 tgl 19 0 empty empty empty 0 -10 0 12 #fcfcfc #000000 #000000 0 1;
#X obj 1345 276 tgl 19 0 empty empty empty 0 -10 0 12 #fcfcfc #000000 #000000 0 1;
#X obj 1262 267 tgl 19 0 empty empty empty 0 -10 0 12 #fcfcfc #000000 #000000 0 1;
#X obj 1323 240 == 1;
#X obj 1389 242 == 2;
#X obj 1160 104 + 1;
#X obj 1161 143 / 2;
#X obj 1274 77 r env_control;
#X connect 0 0 1 0;
#X connect 0 0 4 0;
#X connect 1 0 18 0;
#X connect 2 0 18 0;
#X connect 3 0 18 0;
#X connect 4 0 5 0;
#X connect 5 0 6 1;
#X connect 5 0 9 0;
#X connect 5 0 7 0;
#X connect 6 0 8 0;
#X connect 7 0 6 0;
#X connect 7 0 9 0;
#X connect 8 0 12 0;
#X connect 9 0 10 0;
#X connect 10 0 11 0;
#X connect 11 0 2 0;
#X connect 12 0 3 0;
#X connect 13 0 9 1;
#X connect 13 0 6 0;
#X connect 14 0 16 0;
#X connect 16 0 0 0;
#X connect 16 0 22 0;
#X connect 16 0 38 0;
#X connect 17 0 19 0;
#X connect 18 0 17 0;
#X connect 19 0 33 0;
#X connect 20 0 13 0;
#X connect 22 0 23 0;
#X connect 23 0 24 0;
#X connect 24 0 26 0;
#X connect 25 0 27 0;
#X connect 26 0 34 0;
#X connect 27 0 28 0;
#X connect 28 0 24 1;
#X connect 29 0 35 1;
#X connect 30 0 33 1;
#X connect 31 0 34 1;
#X connect 32 0 29 0;
#X connect 32 0 30 0;
#X connect 32 0 31 0;
#X connect 32 0 37 0;
#X connect 33 0 15 0;
#X connect 34 0 15 0;
#X connect 35 0 15 0;
#X connect 36 0 15 0;
#X connect 37 0 36 1;
#X connect 38 0 40 0;
#X connect 39 0 36 0;
#X connect 40 0 48 0;
#X connect 41 0 42 0;
#X connect 42 0 43 0;
#X connect 43 0 40 1;
#X connect 48 0 49 0;
#X connect 49 0 50 0;
#X connect 50 0 51 0;
#X connect 51 0 35 0;
#X connect 52 0 69 0;
#X connect 53 0 58 0;
#X connect 54 0 53 1;
#X connect 54 0 66 0;
#X connect 55 0 58 0;
#X connect 56 0 58 0;
#X connect 57 0 54 0;
#X connect 57 0 67 0;
#X connect 57 0 68 0;
#X connect 59 0 61 1;
#X connect 59 0 60 1;
#X connect 59 0 62 0;
#X connect 59 0 56 0;
#X connect 60 0 55 0;
#X connect 61 0 53 0;
#X connect 62 0 60 0;
#X connect 62 0 61 0;
#X connect 67 0 55 1;
#X connect 67 0 65 0;
#X connect 68 0 56 1;
#X connect 68 0 64 0;
#X connect 69 0 70 0;
#X connect 70 0 61 0;
#X connect 71 0 60 0;
#X restore 841 175 pd voice;
#N canvas 712 270 969 661 sub 0;
#X obj 287 28 inlet;
#X obj 307 609 outlet~;
#X obj 154 161 mtof;
#X floatatom 153 213 5 0 0 0 - - - 0;
#X obj 144 253 phasor~;
#X obj 140 306 expr~ $v1 < $f2;
#X obj 137 358 -~ 1;
#X obj 373 183 mtof;
#X floatatom 374 218 5 0 0 0 - - - 0;
#X obj 368 247 phasor~;
#X obj 364 300 expr~ $v1 < $f2;
#X obj 361 352 -~ 1;
#X obj 667 107 mtof;
#X floatatom 668 142 5 0 0 0 - - - 0;
#X obj 169 432 == 0;
#X obj 363 472 == 1;
#X obj 584 458 == 2;
#X obj 331 507 *~;
#X obj 556 505 *~;
#X obj 145 472 *~;
#X obj 419 397 r sub_type;
#X obj 202 77 - 12;
#X obj 369 146 - 24;
#X floatatom 235 267 5 0 0 0 - - - 0;
#X obj 615 327 osc~;
#X obj 239 167 loadbang;
#X msg 242 217 0.5;
#X connect 0 0 21 0;
#X connect 0 0 22 0;
#X connect 2 0 3 0;
#X connect 3 0 4 0;
#X connect 4 0 5 0;
#X connect 5 0 6 0;
#X connect 6 0 19 0;
#X connect 7 0 8 0;
#X connect 8 0 9 0;
#X connect 9 0 10 0;
#X connect 10 0 11 0;
#X connect 11 0 17 0;
#X connect 12 0 13 0;
#X connect 13 0 24 0;
#X connect 14 0 19 1;
#X connect 15 0 17 1;
#X connect 16 0 18 1;
#X connect 17 0 1 0;
#X connect 18 0 1 0;
#X connect 19 0 1 0;
#X connect 20 0 14 0;
#X connect 20 0 15 0;
#X connect 20 0 16 0;
#X connect 21 0 2 0;
#X connect 21 0 12 0;
#X connect 22 0 7 0;
#X connect 23 0 5 1;
#X connect 23 0 10 1;
#X connect 24 0 18 0;
#X connect 25 0 26 0;
#X connect 26 0 23 0;
#X restore 727 176 pd sub;
#X obj 1021 85 hsl 162 19 0 2 0 1 empty empty empty -2 -10 0 12 #c6feff #000000 #000000 0 1;
#X obj 883 76 r lfo;
#X obj 903 101 *;
#X text 1201 87 lfo pitch amt;
#X obj 842 149 +;
#X obj 854 124 t b;
#X obj 1048 176 hsl 162 19 0 1 0 1 empty empty empty -2 -10 0 12 #c6feff #000000 #000000 6300 1;
#X text 1233 173 VCO type-specific mod amt;
#X obj 601 653 vradio 19 1 1 4 empty empty empty 0 -10 0 12 #fcfcfc #000000 #000000 0;
#X text 603 628 wave type;
#X text 627 673 sawtooth;
#X text 626 694 square;
#X text 627 714 noise;
#X text 631 653 sine;
#X obj 596 737 s wave_type;
#X obj 574 439 vradio 19 1 1 3 empty empty empty 0 -10 0 12 #fcfcfc #000000 #000000 1;
#X text 576 418 VCO mod source;
#X text 599 440 LFO;
#X text 599 457 envelope;
#X text 599 481 manual;
#X obj 574 505 s vco_mod_src;
#X obj 1049 219 s vco_mod_val;
#X obj 591 850 vradio 19 1 1 3 empty empty empty 0 -10 0 12 #fcfcfc #000000 #000000 1;
#X obj 594 919 s sub_type;
#X text 590 830 sub type;
#X text 624 852 square -1;
#X text 625 870 square -2;
#X text 626 890 sine -1;
#X obj 929 345 hsl 162 19 0 1 0 1 empty empty empty -2 -10 0 12 #ffc7c6 #000000 #000000 13300 1;
#X obj 1138 350 hsl 162 19 0 1 0 1 empty empty empty -2 -10 0 12 #ffc7c6 #000000 #000000 16100 1;
#X text 934 327 osc level;
#X text 1136 326 sub level;
#X obj 854 323 *~;
#X obj 775 366 *~;
#X text 917 376 mixer;
#X obj 1505 732 r triggeron;
#X obj 1508 763 r triggeroff;
#X obj 447 384 loadbang;
#X obj 835 578 r~ env;
#X obj 1599 14 r mod_rate_slider;
#X obj 1608 49 expr ($f1 * 20);
#X obj 1009 23 r lfo_pitch_slider;
#X obj 1018 58 expr ($f1 * 2);
#X obj 1039 147 expr ($f1);
#X obj 1041 116 r vco_mod_slider;
#X obj 898 260 r vco_level_slider;
#X obj 1129 258 r sub_level_slider;
#X obj 916 302 expr (pow(10 \, $f1) - 1) / 9;
#X obj 1129 296 expr (pow(10 \, $f1) - 1) / 9;
#X obj 1180 398 r cutoff_slider;
#X obj 1178 424 expr (pow(10 \, $f1) - 1) * 400;
#X obj 1177 691 r q_slider;
#X obj 1181 718 expr 1 + (pow(10 \, $f1) - 1) * 0.45;
#X obj 1194 519 expr ($f1 * 1000);
#X obj 1193 490 r lfo_filter_slider;
#X obj 1194 622 expr ($f1 * 4000);
#X obj 1193 593 r filter_env_slider;
#X obj 1414 272 r a_slider;
#X obj 1648 270 r d_slider;
#X obj 1481 397 r s_slider;
#X obj 1481 420 expr ($f1);
#X obj 1698 403 r r_slider;
#X obj 1656 520 r trem_slider;
#X obj 1412 310 expr (pow($f1 \, 2) * 2000);
#X obj 1659 303 expr (pow($f1 \, 2) * 2000)+0.1;
#X obj 1673 435 expr (pow($f1 \, 2) * 2000) + 0.2;
#X obj 1656 543 expr ($f1/3);
#X obj 573 164 r lfo_type_switch;
#X obj 568 388 r vco_mod_source_switch;
#X obj 618 579 r wave_type_switch;
#X obj 586 788 r sub_type_switch;
#X obj 1109 576 r env_control;
#X connect 1 0 111 0;
#X connect 2 0 112 0;
#X connect 3 0 4 0;
#X connect 4 0 5 0;
#X connect 5 0 6 0;
#X connect 5 0 6 1;
#X connect 6 0 2 1;
#X connect 6 0 1 1;
#X connect 7 0 1 0;
#X connect 7 0 2 0;
#X connect 11 0 15 1;
#X connect 13 0 15 2;
#X connect 15 0 7 0;
#X connect 16 0 86 0;
#X connect 17 0 18 0;
#X connect 18 0 20 0;
#X connect 18 0 109 0;
#X connect 19 0 17 1;
#X connect 20 0 19 0;
#X connect 21 0 88 0;
#X connect 22 0 29 0;
#X connect 23 0 31 0;
#X connect 24 0 33 0;
#X connect 25 0 35 0;
#X connect 26 0 71 0;
#X connect 27 0 37 0;
#X connect 28 0 29 1;
#X connect 29 0 36 0;
#X connect 30 0 31 1;
#X connect 31 0 36 0;
#X connect 32 0 33 1;
#X connect 33 0 36 0;
#X connect 34 0 35 1;
#X connect 35 0 36 0;
#X connect 36 0 148 0;
#X connect 37 0 28 0;
#X connect 38 0 39 0;
#X connect 39 0 30 0;
#X connect 40 0 41 0;
#X connect 41 0 32 0;
#X connect 42 0 43 0;
#X connect 43 0 34 0;
#X connect 45 0 44 0;
#X connect 45 0 47 0;
#X connect 45 0 72 0;
#X connect 47 0 46 0;
#X connect 48 0 115 0;
#X connect 48 0 56 0;
#X connect 49 0 50 0;
#X connect 50 0 51 0;
#X connect 51 0 114 0;
#X connect 52 0 53 0;
#X connect 53 0 48 0;
#X connect 54 0 48 0;
#X connect 57 0 119 0;
#X connect 58 0 137 1;
#X connect 59 0 120 0;
#X connect 60 0 122 0;
#X connect 68 0 69 1;
#X connect 69 0 70 0;
#X connect 70 0 11 0;
#X connect 71 0 16 0;
#X connect 72 0 47 1;
#X connect 74 0 83 0;
#X connect 76 0 84 0;
#X connect 77 0 78 0;
#X connect 78 0 71 1;
#X connect 78 0 80 0;
#X connect 79 0 72 0;
#X connect 81 0 82 0;
#X connect 82 0 79 1;
#X connect 83 0 132 1;
#X connect 84 0 79 0;
#X connect 85 0 79 0;
#X connect 87 0 45 0;
#X connect 88 0 22 0;
#X connect 88 1 23 0;
#X connect 88 2 24 0;
#X connect 88 3 25 0;
#X connect 88 4 105 0;
#X connect 88 5 106 0;
#X connect 88 6 107 0;
#X connect 88 7 108 0;
#X connect 89 0 98 0;
#X connect 90 0 91 1;
#X connect 91 0 36 0;
#X connect 92 0 93 1;
#X connect 93 0 36 0;
#X connect 94 0 95 1;
#X connect 95 0 36 0;
#X connect 96 0 97 1;
#X connect 97 0 36 0;
#X connect 98 0 90 0;
#X connect 99 0 100 0;
#X connect 100 0 92 0;
#X connect 101 0 102 0;
#X connect 102 0 94 0;
#X connect 103 0 104 0;
#X connect 104 0 96 0;
#X connect 105 0 91 0;
#X connect 106 0 93 0;
#X connect 107 0 95 0;
#X connect 108 0 97 0;
#X connect 109 0 21 0;
#X connect 111 0 0 0;
#X connect 112 0 0 1;
#X connect 113 0 17 0;
#X connect 114 0 116 0;
#X connect 115 0 116 0;
#X connect 116 0 117 0;
#X connect 117 0 118 0;
#X connect 118 0 55 0;
#X connect 127 0 140 0;
#X connect 129 0 131 1;
#X connect 130 0 131 0;
#X connect 131 0 132 0;
#X connect 132 0 70 1;
#X connect 132 0 133 0;
#X connect 133 0 70 0;
#X connect 134 0 136 1;
#X connect 135 0 136 0;
#X connect 136 0 137 0;
#X connect 137 0 121 0;
#X connect 143 0 142 0;
#X connect 149 0 156 0;
#X connect 149 0 151 0;
#X connect 150 0 184 0;
#X connect 151 0 185 0;
#X connect 152 0 154 1;
#X connect 153 0 154 0;
#X connect 154 0 156 1;
#X connect 154 0 157 0;
#X connect 156 0 150 0;
#X connect 157 0 156 0;
#X connect 158 0 173 0;
#X connect 160 0 166 0;
#X connect 167 0 172 0;
#X connect 174 0 175 0;
#X connect 180 0 184 1;
#X connect 181 0 185 1;
#X connect 184 0 15 0;
#X connect 185 0 15 0;
#X connect 187 0 51 0;
#X connect 188 0 48 0;
#X connect 189 0 108 0;
#X connect 190 0 7 1;
#X connect 191 0 192 0;
#X connect 192 0 127 0;
#X connect 193 0 194 0;
#X connect 194 0 152 0;
#X connect 195 0 158 0;
#X connect 196 0 195 0;
#X connect 197 0 199 0;
#X connect 198 0 200 0;
#X connect 199 0 180 0;
#X connect 200 0 181 0;
#X connect 201 0 202 0;
#X connect 202 0 74 0;
#X connect 203 0 204 0;
#X connect 204 0 13 0;
#X connect 205 0 129 0;
#X connect 206 0 205 0;
#X connect 207 0 68 0;
#X connect 208 0 207 0;
#X connect 209 0 215 0;
#X connect 210 0 216 0;
#X connect 211 0 212 0;
#X connect 212 0 58 0;
#X connect 213 0 217 0;
#X connect 214 0 218 0;
#X connect 215 0 57 0;
#X connect 216 0 59 0;
#X connect 217 0 60 0;
#X connect 218 0 134 0;
#X connect 219 0 143 0;
#X connect 220 0 167 0;
#X connect 221 0 160 0;
#X connect 222 0 174 0;
#X connect 223 0 69 0;
